<svg width="80" height="45" viewBox="0 0 80 45" fill="none" xmlns="http://www.w3.org/2000/svg">
<path d="M44.5321 1.19913C45.6037 0.431326 47.0569 0 48.5722 0C50.0874 0 51.5406 0.431326 52.6122 1.19913L78.3269 19.6292C79.3982 20.3972 80 21.4387 80 22.5247C80 23.6107 79.3982 24.6523 78.3269 25.4203L52.6122 43.8503C51.5345 44.5964 50.091 45.0092 48.5927 44.9998C47.0944 44.9905 45.6612 44.5598 44.6017 43.8004C43.5422 43.0411 42.9413 42.0139 42.9282 40.94C42.9152 39.8662 43.4912 38.8316 44.5321 38.0592L60.0009 26.6203H5.71437C4.19883 26.6203 2.74535 26.1888 1.6737 25.4207C0.602048 24.6527 0 23.6109 0 22.5247C0 21.4385 0.602048 20.3968 1.6737 19.6287C2.74535 18.8607 4.19883 18.4292 5.71437 18.4292H60.0009L44.5321 6.99025C43.4608 6.22222 42.859 5.18069 42.859 4.09469C42.859 3.00869 43.4608 1.96716 44.5321 1.19913Z" fill="black" fill-opacity="0.14"/>
</svg>
