<svg width="152" height="8" viewBox="0 0 152 8" fill="none" xmlns="http://www.w3.org/2000/svg">
<path d="M3.832 7.256C2.72267 7.256 1.82667 6.95733 1.144 6.36C0.482667 5.74133 0.152 4.96267 0.152 4.024C0.152 3.08533 0.482667 2.30667 1.144 1.688C1.82667 1.06933 2.72267 0.76 3.832 0.76C4.92 0.76 5.79467 1.06933 6.456 1.688C7.13867 2.30667 7.48 3.08533 7.48 4.024C7.48 4.94133 7.13867 5.70933 6.456 6.328C5.79467 6.94667 4.92 7.256 3.832 7.256ZM13.457 7.256C12.3477 7.256 11.4517 6.95733 10.769 6.36C10.1077 5.74133 9.777 4.96267 9.777 4.024C9.777 3.08533 10.1077 2.30667 10.769 1.688C11.4517 1.06933 12.3477 0.76 13.457 0.76C14.545 0.76 15.4197 1.06933 16.081 1.688C16.7637 2.30667 17.105 3.08533 17.105 4.024C17.105 4.94133 16.7637 5.70933 16.081 6.328C15.4197 6.94667 14.545 7.256 13.457 7.256ZM23.082 7.256C21.9727 7.256 21.0767 6.95733 20.394 6.36C19.7327 5.74133 19.402 4.96267 19.402 4.024C19.402 3.08533 19.7327 2.30667 20.394 1.688C21.0767 1.06933 21.9727 0.76 23.082 0.76C24.17 0.76 25.0447 1.06933 25.706 1.688C26.3887 2.30667 26.73 3.08533 26.73 4.024C26.73 4.94133 26.3887 5.70933 25.706 6.328C25.0447 6.94667 24.17 7.256 23.082 7.256ZM32.707 7.256C31.5977 7.256 30.7017 6.95733 30.019 6.36C29.3577 5.74133 29.027 4.96267 29.027 4.024C29.027 3.08533 29.3577 2.30667 30.019 1.688C30.7017 1.06933 31.5977 0.76 32.707 0.76C33.795 0.76 34.6697 1.06933 35.331 1.688C36.0137 2.30667 36.355 3.08533 36.355 4.024C36.355 4.94133 36.0137 5.70933 35.331 6.328C34.6697 6.94667 33.795 7.256 32.707 7.256ZM42.332 7.256C41.2227 7.256 40.3267 6.95733 39.644 6.36C38.9827 5.74133 38.652 4.96267 38.652 4.024C38.652 3.08533 38.9827 2.30667 39.644 1.688C40.3267 1.06933 41.2227 0.76 42.332 0.76C43.42 0.76 44.2947 1.06933 44.956 1.688C45.6387 2.30667 45.98 3.08533 45.98 4.024C45.98 4.94133 45.6387 5.70933 44.956 6.328C44.2947 6.94667 43.42 7.256 42.332 7.256ZM51.957 7.256C50.8477 7.256 49.9517 6.95733 49.269 6.36C48.6077 5.74133 48.277 4.96267 48.277 4.024C48.277 3.08533 48.6077 2.30667 49.269 1.688C49.9517 1.06933 50.8477 0.76 51.957 0.76C53.045 0.76 53.9197 1.06933 54.581 1.688C55.2637 2.30667 55.605 3.08533 55.605 4.024C55.605 4.94133 55.2637 5.70933 54.581 6.328C53.9197 6.94667 53.045 7.256 51.957 7.256ZM61.582 7.256C60.4727 7.256 59.5767 6.95733 58.894 6.36C58.2327 5.74133 57.902 4.96267 57.902 4.024C57.902 3.08533 58.2327 2.30667 58.894 1.688C59.5767 1.06933 60.4727 0.76 61.582 0.76C62.67 0.76 63.5447 1.06933 64.206 1.688C64.8887 2.30667 65.23 3.08533 65.23 4.024C65.23 4.94133 64.8887 5.70933 64.206 6.328C63.5447 6.94667 62.67 7.256 61.582 7.256ZM71.207 7.256C70.0977 7.256 69.2017 6.95733 68.519 6.36C67.8577 5.74133 67.527 4.96267 67.527 4.024C67.527 3.08533 67.8577 2.30667 68.519 1.688C69.2017 1.06933 70.0977 0.76 71.207 0.76C72.295 0.76 73.1697 1.06933 73.831 1.688C74.5137 2.30667 74.855 3.08533 74.855 4.024C74.855 4.94133 74.5137 5.70933 73.831 6.328C73.1697 6.94667 72.295 7.256 71.207 7.256ZM80.832 7.256C79.7227 7.256 78.8267 6.95733 78.144 6.36C77.4827 5.74133 77.152 4.96267 77.152 4.024C77.152 3.08533 77.4827 2.30667 78.144 1.688C78.8267 1.06933 79.7227 0.76 80.832 0.76C81.92 0.76 82.7947 1.06933 83.456 1.688C84.1387 2.30667 84.48 3.08533 84.48 4.024C84.48 4.94133 84.1387 5.70933 83.456 6.328C82.7947 6.94667 81.92 7.256 80.832 7.256ZM90.457 7.256C89.3477 7.256 88.4517 6.95733 87.769 6.36C87.1077 5.74133 86.777 4.96267 86.777 4.024C86.777 3.08533 87.1077 2.30667 87.769 1.688C88.4517 1.06933 89.3477 0.76 90.457 0.76C91.545 0.76 92.4197 1.06933 93.081 1.688C93.7637 2.30667 94.105 3.08533 94.105 4.024C94.105 4.94133 93.7637 5.70933 93.081 6.328C92.4197 6.94667 91.545 7.256 90.457 7.256ZM100.082 7.256C98.9727 7.256 98.0767 6.95733 97.394 6.36C96.7327 5.74133 96.402 4.96267 96.402 4.024C96.402 3.08533 96.7327 2.30667 97.394 1.688C98.0767 1.06933 98.9727 0.76 100.082 0.76C101.17 0.76 102.045 1.06933 102.706 1.688C103.389 2.30667 103.73 3.08533 103.73 4.024C103.73 4.94133 103.389 5.70933 102.706 6.328C102.045 6.94667 101.17 7.256 100.082 7.256ZM109.707 7.256C108.598 7.256 107.702 6.95733 107.019 6.36C106.358 5.74133 106.027 4.96267 106.027 4.024C106.027 3.08533 106.358 2.30667 107.019 1.688C107.702 1.06933 108.598 0.76 109.707 0.76C110.795 0.76 111.67 1.06933 112.331 1.688C113.014 2.30667 113.355 3.08533 113.355 4.024C113.355 4.94133 113.014 5.70933 112.331 6.328C111.67 6.94667 110.795 7.256 109.707 7.256ZM119.332 7.256C118.223 7.256 117.327 6.95733 116.644 6.36C115.983 5.74133 115.652 4.96267 115.652 4.024C115.652 3.08533 115.983 2.30667 116.644 1.688C117.327 1.06933 118.223 0.76 119.332 0.76C120.42 0.76 121.295 1.06933 121.956 1.688C122.639 2.30667 122.98 3.08533 122.98 4.024C122.98 4.94133 122.639 5.70933 121.956 6.328C121.295 6.94667 120.42 7.256 119.332 7.256ZM128.957 7.256C127.848 7.256 126.952 6.95733 126.269 6.36C125.608 5.74133 125.277 4.96267 125.277 4.024C125.277 3.08533 125.608 2.30667 126.269 1.688C126.952 1.06933 127.848 0.76 128.957 0.76C130.045 0.76 130.92 1.06933 131.581 1.688C132.264 2.30667 132.605 3.08533 132.605 4.024C132.605 4.94133 132.264 5.70933 131.581 6.328C130.92 6.94667 130.045 7.256 128.957 7.256ZM138.582 7.256C137.473 7.256 136.577 6.95733 135.894 6.36C135.233 5.74133 134.902 4.96267 134.902 4.024C134.902 3.08533 135.233 2.30667 135.894 1.688C136.577 1.06933 137.473 0.76 138.582 0.76C139.67 0.76 140.545 1.06933 141.206 1.688C141.889 2.30667 142.23 3.08533 142.23 4.024C142.23 4.94133 141.889 5.70933 141.206 6.328C140.545 6.94667 139.67 7.256 138.582 7.256ZM148.207 7.256C147.098 7.256 146.202 6.95733 145.519 6.36C144.858 5.74133 144.527 4.96267 144.527 4.024C144.527 3.08533 144.858 2.30667 145.519 1.688C146.202 1.06933 147.098 0.76 148.207 0.76C149.295 0.76 150.17 1.06933 150.831 1.688C151.514 2.30667 151.855 3.08533 151.855 4.024C151.855 4.94133 151.514 5.70933 150.831 6.328C150.17 6.94667 149.295 7.256 148.207 7.256Z" fill="#00B4D8"/>
</svg>
