<svg width="72" height="70" viewBox="0 0 72 70" fill="none" xmlns="http://www.w3.org/2000/svg">
<path fill-rule="evenodd" clip-rule="evenodd" d="M49.092 25.4546C49.092 28.83 47.7128 32.0673 45.2577 34.4541C42.8027 36.8409 39.473 38.1818 36.0011 38.1818C32.5291 38.1818 29.1994 36.8409 26.7444 34.4541C24.2894 32.0673 22.9102 28.83 22.9102 25.4546C22.9102 22.0791 24.2894 18.8418 26.7444 16.455C29.1994 14.0682 32.5291 12.7273 36.0011 12.7273C39.473 12.7273 42.8027 14.0682 45.2577 16.455C47.7128 18.8418 49.092 22.0791 49.092 25.4546ZM42.5465 25.4546C42.5465 27.1423 41.8569 28.7609 40.6294 29.9543C39.4019 31.1477 37.737 31.8182 36.0011 31.8182C34.2651 31.8182 32.6002 31.1477 31.3727 29.9543C30.1452 28.7609 29.4556 27.1423 29.4556 25.4546C29.4556 23.7668 30.1452 22.1482 31.3727 20.9548C32.6002 19.7614 34.2651 19.0909 36.0011 19.0909C37.737 19.0909 39.4019 19.7614 40.6294 20.9548C41.8569 22.1482 42.5465 23.7668 42.5465 25.4546Z" fill="#008CFF"/>
<path fill-rule="evenodd" clip-rule="evenodd" d="M36 0C16.1182 0 0 15.6705 0 35C0 54.3295 16.1182 70 36 70C55.8818 70 72 54.3295 72 35C72 15.6705 55.8818 0 36 0ZM6.54545 35C6.54545 41.65 8.87891 47.7718 12.7898 52.6336C15.5371 49.1277 19.0805 46.2864 23.1435 44.3314C27.2066 42.3765 31.6793 41.3608 36.2127 41.3636C40.6878 41.3586 45.1049 42.3471 49.1273 44.2539C53.1497 46.1607 56.6711 48.9354 59.4229 52.3664C62.2586 48.7506 64.1678 44.5302 64.9927 40.0546C65.8177 35.579 65.5345 30.9767 64.1667 26.6286C62.7989 22.2805 60.3858 18.3115 57.127 15.0501C53.8683 11.7887 49.8576 9.32864 45.4267 7.87344C40.9959 6.41823 36.2723 6.00973 31.6468 6.68173C27.0213 7.35374 22.627 9.08693 18.8272 11.7379C15.0275 14.3889 11.9317 17.8814 9.79602 21.9265C7.6603 25.9717 6.54605 30.4531 6.54545 35ZM36 63.6364C29.2382 63.647 22.6805 61.3854 17.4371 57.2346C19.5474 54.2965 22.3566 51.8977 25.6257 50.2424C28.8948 48.587 32.5268 47.7242 36.2127 47.7273C39.8526 47.7242 43.4406 48.5655 46.6789 50.1814C49.9171 51.7974 52.7119 54.1412 54.8313 57.0182C49.5474 61.3041 42.8814 63.6468 36 63.6364Z" fill="#008CFF"/>
</svg>
